# xmcd CD database file generated by OrangeCD 4.3
#
# Track frame offsets:
#	150
#	2889
#	22383
#	46359
#	65393
#	84269
#	102644
#	120721
#	142154
#	162608
#	180282
#	198592
#	203718
#
# Disc length: 2941 seconds
#
# Revision: 0
# Processed by: cddbd v1.4PL0 Copyright (c) Steve Scherf et al.
# Submitted via: OrangeCD 4.3
#
DISCID=bc0b7b0d
DTITLE=Lil' Rob - High Till I Die
DYEAR=2003
DGENRE=Blues
TTITLE0=Intro
TTITLE1=Those Who Talk (2000 Remix)
TTITLE2=Hight Till I Die
TTITLE3=I Remember
TTITLE4=Wickie Wicked (Mixdown)
TTITLE5=La Cantina
TTITLE6=Let Me Try (Mix)
TTITLE7=No soy De Ti
TTITLE8=The Outcome
TTITLE9=No One To Depend On
TTITLE10=La Cantina (Remix)
TTITLE11=Outro
TTITLE12=Bonus Track
EXTD=
EXTT0=
EXTT1=
EXTT2=
EXTT3=
EXTT4=
EXTT5=
EXTT6=
EXTT7=
EXTT8=
EXTT9=
EXTT10=
EXTT11=
EXTT12=
PLAYORDER=
